<svg width="38" height="38" viewBox="0 0 38 38" fill="none" xmlns="http://www.w3.org/2000/svg">
<circle cx="18.7088" cy="18.7088" r="18.7088" fill="white"/>
<path d="M14.7042 7.4241H18.4057V14.8347H14.7042C9.82284 14.6436 9.77354 7.62472 14.7042 7.4241ZM14.7042 22.5622H18.4057V15.1516H14.7042C9.77359 15.3522 9.82289 22.3711 14.7042 22.5622H14.7042ZM22.4239 7.4241H18.7223V14.8347H22.4239C27.371 14.5696 27.3093 7.57537 22.4239 7.4241ZM18.4057 26.5844V22.8791H14.7042C11.6837 22.8791 9.77359 26.4241 11.8743 28.9703C13.8772 31.494 18.4057 30.2358 18.4057 26.5844H18.4057ZM26.133 18.8569C26.133 16.0093 23.0323 14.22 20.5652 15.6438C18.0981 17.0676 18.098 20.6463 20.5652 22.07C23.0323 23.4938 26.133 21.7045 26.133 18.8569Z" fill="#487473"/>
</svg>
