<svg width="15" height="18" viewBox="0 0 15 18" fill="none" xmlns="http://www.w3.org/2000/svg">
<path d="M3.89395 15.9126C5.04395 15.7726 5.56395 15.7126 6.18395 15.6326C6.18395 11.5826 6.18395 7.56256 6.18395 3.43256C4.87395 3.43256 3.63394 3.43256 2.33394 3.43256C2.25394 3.99256 2.19395 4.50256 2.10395 5.11256C1.51395 5.11256 0.963945 5.11256 0.293945 5.11256C0.293945 3.62256 0.293945 2.17255 0.293945 0.602554C5.17395 0.602554 9.98395 0.602554 14.9639 0.602554C14.9639 2.06255 14.9639 3.51256 14.9639 5.16256C14.4839 5.18256 13.9339 5.21255 13.3039 5.24255C13.1839 4.60255 13.0839 4.05256 12.9639 3.41256C11.7439 3.41256 10.5339 3.41256 9.18394 3.41256C9.18394 7.48256 9.18394 11.5326 9.18394 15.6426C9.73394 15.7126 10.2539 15.7726 10.9539 15.8626C10.9839 16.3826 11.0139 16.9326 11.0639 17.7326C8.94394 17.7326 6.94394 17.8026 4.96394 17.6626C4.61394 17.6426 4.34395 16.6826 3.89395 15.9126Z" fill="#98FB98"/>
</svg>
